<?xml version="1.0" standalone="no"?>
<!DOCTYPE svg PUBLIC "-//W3C//DTD SVG 20010904//EN"
 "http://www.w3.org/TR/2001/REC-SVG-20010904/DTD/svg10.dtd">
<svg version="1.0" xmlns="http://www.w3.org/2000/svg"
 width="409.000000pt" height="409.000000pt" viewBox="0 0 409.000000 409.000000"
 preserveAspectRatio="xMidYMid meet">
<metadata>
Created by potrace 1.14, written by Peter Selinger 2001-2017
</metadata>
<g transform="translate(0.000000,409.000000) scale(0.100000,-0.100000)"
fill="#000000" stroke="none">
<path d="M1889 4086 c-2 -2 -35 -7 -74 -10 -38 -3 -81 -8 -95 -11 -33 -7 -69
-14 -105 -20 -66 -12 -241 -64 -290 -85 -11 -5 -45 -19 -75 -31 -108 -44 -336
-171 -394 -220 -6 -5 -33 -26 -61 -47 -105 -78 -255 -228 -365 -362 -111 -137
-249 -392 -313 -575 -42 -124 -65 -209 -86 -335 -6 -30 -13 -71 -16 -90 -10
-57 -13 -389 -4 -465 14 -114 17 -136 34 -215 3 -14 7 -34 9 -45 20 -97 83
-276 141 -400 136 -293 386 -597 635 -774 36 -25 66 -49 68 -53 2 -5 8 -8 12
-8 5 0 28 -13 52 -29 151 -101 487 -239 649 -265 19 -3 57 -10 86 -15 106 -21
182 -26 363 -25 200 1 251 6 412 39 682 144 1266 655 1497 1309 30 86 75 250
85 311 3 17 10 62 17 100 17 102 19 411 3 530 -86 632 -428 1163 -963 1495
-84 52 -282 150 -304 150 -7 0 -17 4 -22 9 -21 19 -255 87 -363 105 -135 24
-190 29 -348 32 -100 2 -183 2 -185 0z"/>
</g>
</svg>
